<svg width="18" height="18" viewBox="0 0 18 18" fill="none" xmlns="http://www.w3.org/2000/svg">
<g clip-path="url(#clip0_57_7)">
<path d="M9.84375 0.838828C9.84375 0.00210886 8.76621 -0.313243 8.2916 0.38039C3.9375 6.74473 10.125 7.03125 10.125 10.125C10.125 11.3776 9.1016 12.3912 7.84512 12.3746C6.60867 12.3588 5.625 11.328 5.625 10.0916V7.08539C5.625 6.3225 4.69441 5.9523 4.16848 6.50531C3.22734 7.49391 2.25 9.18738 2.25 11.25C2.25 14.972 5.27801 18 9 18C12.722 18 15.75 14.972 15.75 11.25C15.75 5.26324 9.84375 4.46484 9.84375 0.838828Z" fill="#5142FB"/>
</g>
<defs>
<clipPath id="clip0_57_7">
<rect width="18" height="18" fill="white"/>
</clipPath>
</defs>
</svg>
